<?xml version="1.0" encoding="UTF-8"?>
<svg id="Layer_2" data-name="Layer 2" xmlns="http://www.w3.org/2000/svg" viewBox="0 0 37.45 37.45">
  <defs>
    <style>
      .cls-1 {
        fill: #453f4e;
        fill-rule: evenodd;
      }
    </style>
  </defs>
  <g id="Layer_1-2" data-name="Layer 1">
    <path class="cls-1" d="M12.87,18.72c-3.22,0-5.85-2.63-5.85-5.85s2.63-5.85,5.85-5.85,5.85,2.63,5.85,5.85-2.63,5.85-5.85,5.85M35.11,32.77c0,.37-.09.72-.25,1.04-1.18.32-2.48.03-3.4-.9l-6.86-6.86,1.97-1.97s0-.01.01-.01l.4-.4,7.45,7.45c.44.44.68,1.03.68,1.66ZM2.34,12.87C2.34,7.06,7.07,2.34,12.87,2.34s10.53,4.72,10.53,10.53c0,2.26-.71,4.42-2.05,6.25-.63.85-1.37,1.6-2.23,2.23-1.82,1.35-3.98,2.05-6.24,2.05-5.8,0-10.53-4.72-10.53-10.53h0ZM36.08,29.45l-7.45-7.45.42-.42c.46-.46.46-1.2,0-1.66-.46-.46-1.2-.46-1.66,0l-1.24,1.24-.42.42-1.93-1.93c1.28-2.04,1.94-4.36,1.94-6.79C25.74,5.78,19.97,0,12.87,0S0,5.78,0,12.87s5.78,12.87,12.87,12.87c2.43,0,4.76-.67,6.79-1.94l1.93,1.93-.42.42-1.24,1.24c-.46.46-.46,1.2,0,1.66.23.23.53.35.82.35s.6-.12.82-.35l.42-.42,7.45,7.45c.88.88,2.06,1.37,3.31,1.37s2.43-.49,3.31-1.37c.88-.88,1.37-2.06,1.37-3.31s-.49-2.43-1.37-3.31ZM12.87,4.68c-4.52,0-8.19,3.67-8.19,8.19s3.67,8.19,8.19,8.19,8.19-3.67,8.19-8.19-3.67-8.19-8.19-8.19Z"/>
  </g>
</svg>